<svg width="100" height="100" viewBox="0 0 100 100" fill="none" xmlns="http://www.w3.org/2000/svg">
  <!-- Left chain link -->
  <path d="M5 25C5 14.5066 12.5066 7 23 7H33C43.4934 7 51 14.5066 51 25V55C51 65.4934 43.4934 73 33 73H23C12.5066 73 5 65.4934 5 55V25Z" fill="#604B3B"/>
  
  <!-- Right chain link -->
  <path d="M49 25C49 14.5066 56.5066 7 67 7H77C87.4934 7 95 14.5066 95 25V55C95 65.4934 87.4934 73 77 73H67C56.5066 73 49 65.4934 49 55V25Z" fill="#604B3B"/>
  
  <!-- Left inner white space -->
  <path d="M15 25C15 19.4772 19.4772 15 25 15H35C40.5228 15 45 19.4772 45 25V45C45 50.5228 40.5228 55 35 55H25C19.4772 55 15 50.5228 15 45V25Z" fill="white"/>
  
  <!-- Right inner white space -->
  <path d="M55 25C55 19.4772 59.4772 15 65 15H75C80.5228 15 85 19.4772 85 25V45C85 50.5228 80.5228 55 75 55H65C59.4772 55 55 50.5228 55 45V25Z" fill="white"/>
  
  <!-- Bottom left connector -->
  <path d="M15 45C15 34.5066 22.5066 27 33 27H43C53.4934 27 61 34.5066 61 45V75C61 85.4934 53.4934 93 43 93H33C22.5066 93 15 85.4934 15 75V45Z" fill="#604B3B"/>
  
  <!-- Bottom right connector -->
  <path d="M39 45C39 34.5066 46.5066 27 57 27H67C77.4934 27 85 34.5066 85 45V75C85 85.4934 77.4934 93 67 93H57C46.5066 93 39 85.4934 39 75V45Z" fill="#604B3B"/>
  
  <!-- Bottom left inner white -->
  <path d="M25 45C25 39.4772 29.4772 35 35 35H45C50.5228 35 55 39.4772 55 45V65C55 70.5228 50.5228 75 45 75H35C29.4772 75 25 70.5228 25 65V45Z" fill="white"/>
  
  <!-- Bottom right inner white -->
  <path d="M49 45C49 39.4772 53.4772 35 59 35H69C74.5228 35 79 39.4772 79 45V65C79 70.5228 74.5228 75 69 75H59C53.4772 75 49 70.5228 49 65V45Z" fill="white"/>
</svg>