<svg width="200" height="200" viewBox="0 0 200 200" fill="none" xmlns="http://www.w3.org/2000/svg">
<path d="M50 50C50 27.9086 67.9086 10 90 10H110C132.091 10 150 27.9086 150 50V110C150 132.091 132.091 150 110 150H90C67.9086 150 50 132.091 50 110V50Z" fill="#604B3B"/>
<path d="M150 50C150 27.9086 167.909 10 190 10H210C232.091 10 250 27.9086 250 50V110C250 132.091 232.091 150 210 150H190C167.909 150 150 132.091 150 110V50Z" fill="#604B3B"/>
<path d="M90 50C90 39.3431 98.3431 31 109 31H131C141.657 31 150 39.3431 150 50V90C150 100.657 141.657 109 131 109H109C98.3431 109 90 100.657 90 90V50Z" fill="white"/>
<path d="M190 50C190 39.3431 198.343 31 209 31H231C241.657 31 250 39.3431 250 50V90C250 100.657 241.657 109 231 109H209C198.343 109 190 100.657 190 90V50Z" fill="white"/>
<path d="M70 90C70 79.3431 78.3431 71 89 71H111C121.657 71 130 79.3431 130 90V130C130 140.657 121.657 149 111 149H89C78.3431 149 70 140.657 70 130V90Z" fill="#604B3B"/>
<path d="M170 90C170 79.3431 178.343 71 189 71H211C221.657 71 230 79.3431 230 90V130C230 140.657 221.657 149 211 149H189C178.343 149 170 140.657 170 130V90Z" fill="#604B3B"/>
</svg>