<svg xmlns="http://www.w3.org/2000/svg" viewBox="0 0 24 24" fill="none" stroke="currentColor" stroke-width="2">
  <rect x="2" y="2" width="20" height="20" rx="4" fill="#ffffff" stroke="#141414" />
  <path d="M18.9 9.1c.6-.4 1.1-.9 1.4-1.5-.6.2-1.2.4-1.8.4.6-.4 1.1-1 1.3-1.7-.6.3-1.3.6-2 .7-.6-.6-1.5-1-2.4-1-1.9 0-3.5 1.6-3.5 3.5 0 .3 0 .6.1.9-2.9-.1-5.5-1.6-7.2-3.8-.3.5-.4 1-.4 1.6 0 1.2.6 2.2 1.6 2.9-.5 0-1-.2-1.5-.4 0 1.7 1.2 3.1 2.8 3.4-.3.1-.6.1-.9.1-.2 0-.4 0-.7-.1.4 1.3 1.7 2.3 3.2 2.4-1.2.9-2.7 1.4-4.2 1.4-.3 0-.6 0-.8 0 1.5 1 3.3 1.6 5.3 1.6 6.3 0 9.8-5.4 9.8-9.9v-.4c.6-.4 1.1-1 1.5-1.5z" fill="#141414" stroke="none" />
</svg>
